<?xml version="1.0" standalone="no"?>
<!DOCTYPE svg PUBLIC "-//W3C//DTD SVG 20010904//EN"
 "http://www.w3.org/TR/2001/REC-SVG-20010904/DTD/svg10.dtd">
<svg version="1.0" xmlns="http://www.w3.org/2000/svg"
 width="400.000000pt" height="400.000000pt" viewBox="0 0 400.000000 400.000000"
 preserveAspectRatio="xMidYMid meet">
<metadata>
Created by potrace 1.14, written by Peter Selinger 2001-2017
</metadata>
<g transform="translate(0.000000,400.000000) scale(0.100000,-0.100000)"
fill="#000000" stroke="none">
<path d="M1771 3830 c-175 -39 -365 -125 -546 -248 -83 -57 -101 -73 -103 -97
-2 -18 -23 -51 -54 -84 -37 -41 -49 -60 -45 -78 3 -17 -3 -29 -22 -42 -14 -10
-48 -56 -75 -101 -133 -223 -209 -527 -184 -728 6 -50 5 -92 -2 -124 -18 -84
-12 -298 10 -409 35 -169 94 -309 131 -309 6 0 17 -7 25 -15 10 -9 35 -15 67
-15 36 0 60 -6 77 -20 14 -11 32 -20 40 -20 12 0 23 -37 46 -157 21 -111 44
-192 76 -273 l46 -115 12 -210 12 -210 50 -57 c106 -122 271 -259 420 -349 94
-57 262 -132 296 -132 36 1 256 114 337 175 97 72 240 217 315 318 l63 85 -6
154 c-6 144 -5 158 18 225 13 39 31 85 39 101 22 45 43 161 61 340 18 171 24
185 75 185 15 0 36 11 49 24 17 18 38 27 80 31 34 4 70 17 92 32 32 21 41 37
67 116 17 51 36 130 43 176 15 108 6 331 -18 426 -11 46 -17 100 -15 155 1 47
-2 94 -7 105 -5 11 -17 61 -26 110 -36 183 -115 383 -197 497 -19 26 -84 101
-146 167 -62 65 -112 126 -112 134 0 19 -20 31 -171 111 -173 90 -352 133
-594 141 -106 4 -147 1 -224 -15z m992 -457 c53 -53 176 -227 212 -300 19 -39
49 -109 65 -154 l31 -82 -22 -23 c-19 -20 -21 -27 -11 -49 6 -14 15 -25 19
-25 5 0 9 -13 10 -29 3 -41 -22 -59 -74 -53 l-43 4 0 135 c0 88 3 132 10 128
6 -4 1 18 -11 47 -12 29 -24 59 -27 67 -3 9 -1 12 6 7 18 -11 14 5 -8 39 -11
17 -15 32 -9 35 10 7 -35 75 -84 128 -20 20 -26 32 -16 32 7 0 0 9 -18 19 -17
11 -50 48 -74 82 -40 59 -40 61 -13 41 16 -11 42 -33 57 -49z m-1713 -270
c-30 -81 -33 -96 -20 -88 6 4 2 -11 -9 -34 -20 -38 -21 -51 -14 -178 3 -76 7
-164 7 -197 l1 -59 -45 -13 c-25 -8 -53 -11 -62 -8 -25 8 -23 58 4 94 l22 30
-24 32 -24 32 23 90 c28 107 77 227 121 297 18 27 33 49 35 49 2 0 -5 -21 -15
-47z m303 -125 c23 -24 57 -54 75 -66 l32 -23 -10 26 c-15 40 -12 43 10 10
l20 -30 0 27 0 27 24 -23 c12 -13 37 -31 53 -40 l30 -15 -4 42 c-3 23 0 58 5
77 9 29 10 31 11 10 1 -14 6 -43 12 -65 10 -34 13 -37 20 -20 8 19 8 19 15 -2
7 -25 24 -31 24 -9 0 14 50 69 57 62 3 -2 0 -14 -7 -25 -14 -27 -3 -27 29 2
l26 22 -24 -27 c-14 -16 -22 -31 -18 -34 3 -3 33 -3 67 1 48 6 71 15 106 41
24 19 47 34 50 34 2 0 -7 -21 -22 -46 l-27 -45 69 44 c70 45 147 87 160 87 4
0 -3 -11 -16 -25 -13 -14 -19 -25 -13 -25 6 0 55 11 109 25 54 14 101 25 103
25 10 0 -65 -52 -89 -62 -14 -5 -43 -13 -65 -18 -38 -7 -38 -8 20 -9 64 -1
143 26 206 69 l34 23 -30 -33 c-16 -18 -50 -46 -74 -61 l-45 -29 35 0 c18 0
64 11 101 23 37 13 65 19 62 15 -6 -10 -59 -38 -94 -50 -18 -6 -11 -7 23 -3
27 3 70 15 95 27 26 12 53 22 59 21 7 0 11 3 8 7 -3 5 0 12 5 15 6 4 25 25 41
47 38 54 38 39 -1 -18 -39 -55 -27 -56 35 -2 l48 42 -17 -35 -17 -34 31 35
c16 19 30 38 30 42 0 4 4 8 8 8 9 0 65 -235 106 -450 23 -116 46 -377 61 -685
6 -113 4 -130 -29 -277 -51 -228 -60 -255 -142 -417 -41 -80 -79 -163 -86
-183 -6 -21 -14 -38 -17 -38 -4 0 -12 30 -19 66 -7 37 -21 79 -31 93 -18 24
-91 76 -78 55 5 -8 -204 38 -272 60 -16 6 -21 5 -17 -3 7 -11 -52 5 -68 19 -9
9 69 70 89 70 6 0 21 9 33 20 24 22 29 74 11 100 -7 11 -8 6 -4 -20 7 -44 1
-52 -61 -83 -28 -14 -72 -49 -97 -76 -45 -51 -45 -51 -108 -51 l-63 0 -55 59
c-31 33 -70 66 -87 75 -38 18 -47 37 -38 82 9 47 -3 43 -16 -6 -14 -52 -1 -76
55 -100 49 -21 74 -55 55 -74 -8 -8 -9 -6 -4 9 6 15 -5 10 -42 -20 -29 -23
-41 -29 -29 -15 l20 24 -25 -15 c-14 -9 -47 -26 -74 -37 -39 -18 -46 -19 -35
-5 13 15 12 15 -10 3 -13 -7 -61 -25 -105 -39 -78 -26 -82 -30 -111 -79 -16
-28 -33 -51 -36 -52 -3 0 -32 51 -64 112 -189 365 -172 314 -211 653 -37 331
-41 464 -16 610 12 66 33 203 47 305 22 158 51 305 71 360 4 11 9 6 19 -15
l13 -30 -5 40 -4 40 31 -52 c17 -29 50 -72 73 -95z m781 -1724 c3 -8 2 -12 -4
-9 -6 3 -10 10 -10 16 0 14 7 11 14 -7z m185 -239 c9 -2 18 -4 20 -4 3 -1 -8
-15 -25 -32 -23 -24 -25 -29 -9 -24 19 6 19 6 2 -8 -10 -9 -42 -21 -70 -28
-43 -10 -48 -14 -32 -21 13 -5 1 -7 -33 -4 -47 5 -52 3 -42 -9 15 -19 14 -19
-44 1 -41 14 -50 14 -57 3 -5 -8 -9 -9 -9 -3 0 5 -15 10 -34 10 -19 0 -33 -3
-31 -6 2 -4 -19 -3 -48 1 -54 7 -129 37 -122 49 2 4 -12 15 -33 24 l-37 18 25
14 c31 17 51 18 48 2 -2 -9 10 -12 42 -10 25 1 76 -3 114 -9 49 -8 84 -8 125
-1 31 6 91 16 134 23 53 8 74 15 65 21 -9 6 -5 7 11 3 13 -4 31 -9 40 -10z
m-424 -5 c-3 -5 -18 -10 -33 -9 l-27 1 25 8 c35 11 42 11 35 0z m174 -2 c12 0
19 -4 15 -8 -17 -16 -134 -17 -134 -1 0 12 36 18 70 13 14 -2 36 -4 49 -4z
m129 5 c-10 -2 -28 -2 -40 0 -13 2 -5 4 17 4 22 1 32 -1 23 -4z m-839 -204
c29 -50 55 -105 58 -121 3 -18 9 -25 13 -18 8 14 40 -59 40 -93 1 -21 1 -21
14 -4 13 17 16 14 38 -35 23 -50 75 -111 90 -106 4 2 22 -11 40 -28 39 -37 78
-59 78 -45 0 6 16 -1 36 -14 47 -32 69 -33 53 -4 -10 19 -7 19 27 -5 37 -25
71 -35 60 -17 -3 4 20 2 52 -5 78 -19 123 -17 183 5 40 16 50 17 45 5 -17 -44
135 26 204 95 27 27 51 44 53 38 2 -7 28 24 56 68 29 44 57 79 61 78 4 -1 13
18 20 42 7 24 16 43 21 42 5 -1 33 37 62 85 l54 88 6 -68 c14 -143 11 -158
-40 -231 -70 -98 -232 -261 -331 -331 -87 -63 -272 -160 -304 -160 -26 0 -183
70 -266 119 -120 70 -260 182 -369 294 -102 105 -103 106 -103 155 0 27 -3 97
-7 155 -3 59 -4 107 -1 107 3 0 28 -41 57 -91z"/>
<path d="M2645 2229 c-38 -5 -146 -28 -240 -50 -210 -51 -241 -68 -252 -135
l-6 -37 49 7 c27 4 58 9 69 12 11 3 2 -6 -20 -20 -48 -31 -42 -33 20 -6 63 27
69 25 18 -6 -62 -36 -57 -54 15 -53 48 0 54 2 35 11 -30 14 -29 32 2 46 34 15
32 16 40 -15 11 -45 34 -63 80 -63 50 0 78 25 78 70 0 26 3 29 21 24 12 -3 28
-13 36 -21 13 -12 12 -16 -10 -34 l-25 -20 25 7 c14 3 37 13 52 20 15 8 35 11
45 7 30 -10 10 5 -48 37 l-54 31 45 -7 c25 -3 56 -16 70 -27 25 -21 25 -21 -1
6 -29 32 -77 46 -164 48 l-60 1 50 14 c45 13 102 21 190 27 21 1 32 -4 40 -20
7 -13 15 -20 18 -16 4 3 7 0 7 -8 1 -25 39 55 40 82 0 38 -41 94 -70 95 -14 1
-56 -2 -95 -7z m-129 -232 c-1 -8 -10 -26 -19 -40 -18 -27 -60 -37 -72 -17 -4
6 -11 8 -16 5 -15 -10 -10 2 8 16 14 12 16 12 8 0 -6 -11 -4 -13 7 -8 9 3 20
1 26 -5 6 -6 17 -2 31 14 19 19 20 24 7 26 -23 5 -20 22 3 22 11 0 18 -6 17
-13z m-216 -32 c0 -8 -4 -15 -10 -15 -5 0 -7 7 -4 15 4 8 8 15 10 15 2 0 4 -7
4 -15z"/>
<path d="M1227 2181 c-31 -37 -35 -77 -12 -121 19 -37 32 -38 47 -5 11 25 13
25 97 20 47 -4 111 -12 141 -19 l55 -13 -87 -6 c-78 -5 -159 -30 -145 -44 3
-2 14 0 25 6 12 6 31 11 44 11 19 0 15 -5 -22 -27 l-45 -27 30 -7 c17 -4 47
-14 67 -23 51 -22 60 -20 21 5 -18 12 -33 25 -33 29 0 7 61 40 74 40 3 0 6
-13 6 -28 0 -17 10 -38 25 -52 20 -18 31 -22 62 -17 40 7 73 37 73 68 0 21 12
24 41 9 27 -15 24 -28 -13 -45 -18 -8 -25 -13 -15 -10 10 3 41 5 68 5 58 0 62
13 14 42 -45 26 -40 33 8 13 50 -21 58 -19 22 5 -34 23 -22 25 53 11 40 -8 42
-7 42 17 0 22 -35 92 -46 92 -3 0 -2 -6 2 -12 4 -7 -1 -6 -12 4 -22 18 -100
42 -113 33 -5 -3 -11 -1 -13 3 -5 13 -251 62 -348 69 l-86 6 -27 -32z m318
-191 c3 -5 1 -10 -4 -10 -6 0 -11 5 -11 10 0 6 2 10 4 10 3 0 8 -4 11 -10z
m74 1 c9 -6 10 -11 2 -15 -13 -8 -31 1 -31 15 0 11 11 11 29 0z m-14 -41 c-3
-5 2 -10 12 -10 15 -1 13 -3 -6 -14 -24 -13 -56 -11 -77 5 -6 5 -15 5 -19 1
-5 -4 -5 -1 -1 6 5 8 13 9 26 2 22 -12 61 -13 59 -2 -2 12 1 22 7 22 3 0 2 -4
-1 -10z m125 0 c0 -5 -5 -10 -11 -10 -5 0 -7 5 -4 10 3 6 8 10 11 10 2 0 4 -4
4 -10z"/>
</g>
</svg>
