<?xml version="1.0" encoding="UTF-8"?>
<svg width="116px" height="24px" viewBox="0 0 116 24" version="1.1" xmlns="http://www.w3.org/2000/svg" xmlns:xlink="http://www.w3.org/1999/xlink">
    <title>logo_s</title>
    <defs>
        <linearGradient x1="2.42857769%" y1="50.95078%" x2="96.0889071%" y2="46.9150965%" id="linearGradient-1">
            <stop stop-color="#2BB1ED" offset="0%"></stop>
            <stop stop-color="#6150D7" offset="29.0196%"></stop>
            <stop stop-color="#D040A9" offset="54.1176%"></stop>
            <stop stop-color="#E94289" offset="72.9412%"></stop>
            <stop stop-color="#ED7444" offset="100%"></stop>
        </linearGradient>
    </defs>
    <g id="Page-2" stroke="none" stroke-width="1" fill="none" fill-rule="evenodd">
        <g id="v3" transform="translate(-138.000000, -59.000000)" fill="url(#linearGradient-1)">
            <path d="M138,59 L150.000085,59 C156.600207,59 162,64.3997928 162,70.9999154 C162,77.6000381 156.600207,83 150.000085,83 L138,83 L138,59 Z M229.5,59 L229.5,70.9999154 C229.5,77.5996997 234.899793,83 241.499915,83 L241.499915,83 C248.100038,83 253.5,77.6000381 253.5,70.9999154 L253.5,59 L229.5,59 Z M188.1,83 L188.1,70.9999154 C188.1,64.3997928 193.486594,59 200.070583,59 L200.070583,59 C203.201429,59 206.061444,60.2214743 208.200084,62.2124386 C210.338894,60.2214743 213.198571,59 216.329248,59 L216.329248,59 C222.913237,59 228.3,64.3997928 228.3,70.9999154 L228.3,83 L212.041336,83 L204.358664,83 L188.1,83 Z M162.9,70.9999154 C162.9,64.3997928 168.299962,59 174.900085,59 L174.900085,59 C181.500207,59 186.9,64.4003003 186.9,70.9999154 L186.9,73.9044904 L169.543257,73.9044904 C170.993261,75.9961024 173.068634,77.0666897 175.849725,77.0404705 L186.9,77.0404705 L186.9,83 L174.900085,83 C168.3003,83 162.9,77.6000381 162.9,70.9999154 L162.9,70.9999154 Z" id="logo_s"></path>
        </g>
    </g>
</svg>